<?xml version="1.0" encoding="iso-8859-1"?>
<!-- Generator: Adobe Illustrator 19.0.0, SVG Export Plug-In . SVG Version: 6.00 Build 0)  -->
<svg version="1.1" id="Layer_1" xmlns="http://www.w3.org/2000/svg" xmlns:xlink="http://www.w3.org/1999/xlink" x="0px" y="0px"
	 viewBox="0 0 512 512" style="enable-background:new 0 0 512 512;" xml:space="preserve">
<g>
	<g>
		<path d="M476.222,427.813H43.795V22.425c0-4.966-4.018-8.984-8.984-8.984c-4.965,0-8.984,4.018-8.984,8.984v405.388H8.984
			c-4.965,0-8.984,4.018-8.984,8.984s4.018,8.984,8.984,8.984h16.844v43.795c0,4.966,4.018,8.984,8.984,8.984
			c4.966,0,8.984-4.018,8.984-8.984V445.78h432.427c4.966,0,8.984-4.018,8.984-8.984S481.188,427.813,476.222,427.813z"/>
	</g>
</g>
<g>
	<g>
		<path d="M100.154,89.925c-15.502-2.588-19.371-4.255-19.371-13.598c0-6.545,2.377-8.992,4.132-10.265
			c8.124-5.878,27.627-2.606,38.005,0.825c4.694,1.535,9.808-0.991,11.361-5.703c1.562-4.702-1.531-9.782-6.233-11.344
			c-1.772-0.594-10.137-3.312-21.367-4.446V32.531H88.714v13.041c-4.492,0.873-10.344,2.674-14.818,5.9
			c-5.281,3.808-11.291,11.203-11.291,24.854c0,25.574,20.88,29.03,34.601,31.32c15.502,2.588,19.511,4.255,19.511,13.598
			c0,9.642-3.93,16.169-12.151,19.941c-10.8,4.974-23.784,2.842-26.346,0.658c-3.509-3.509-9.194-3.509-12.703,0
			c-3.509,3.509-3.509,9.528,0,13.037c4.948,4.957,14.291,7.913,24.31,7.913c0.002,0-1.114,0-1.114,0v13.475h17.967v-17.125
			c2.246-0.307,2.362-0.575,3.22-0.93c15.669-6.483,24.573-19.617,24.573-36.97C134.474,95.671,113.875,92.215,100.154,89.925z"/>
	</g>
</g>
<g>
	<g>
		<path d="M160.583,266.107H70.746c-4.961,0-8.984,4.022-8.984,8.984v125.771c0,4.961,4.022,8.984,8.984,8.984h89.837
			c4.961,0,8.984-4.022,8.984-8.984V275.09C169.567,270.129,165.544,266.107,160.583,266.107z M151.599,391.878H79.73V284.074
			h71.869V391.878z"/>
	</g>
</g>
<g>
	<g>
		<path d="M286.354,167.286h-89.837c-4.961,0-8.984,4.022-8.984,8.984v224.592c0,4.961,4.022,8.984,8.984,8.984h89.837
			c4.961,0,8.984-4.022,8.984-8.984V176.27C295.338,171.309,291.316,167.286,286.354,167.286z M277.371,391.878h-71.869V185.254
			h71.869V391.878z"/>
	</g>
</g>
<g>
	<g>
		<path d="M412.126,77.45h-89.837c-4.961,0-8.984,4.022-8.984,8.984v314.428c0,4.961,4.022,8.984,8.984,8.984h89.837
			c4.961,0,8.984-4.022,8.984-8.984V86.433C421.11,81.472,417.087,77.45,412.126,77.45z M403.142,391.878h-71.869V95.417h71.869
			V391.878z"/>
	</g>
</g>
<g>
	<g>
		<path d="M509.437,177.779l-26.951-26.951c-3.509-3.509-9.194-3.509-12.703,0l-26.951,26.951c-3.509,3.509-3.509,9.194,0,12.703
			c3.509,3.509,8.633,3.509,12.142,0l11.054-11.615v202.904c0,4.966,4.018,8.984,8.984,8.984s8.984-4.018,8.984-8.984V178.867
			l12.177,11.615c1.755,1.755,4.334,2.632,6.632,2.632c2.298,0,4.738-0.877,6.492-2.632
			C512.806,186.973,512.946,181.288,509.437,177.779z"/>
	</g>
</g>
<g>
</g>
<g>
</g>
<g>
</g>
<g>
</g>
<g>
</g>
<g>
</g>
<g>
</g>
<g>
</g>
<g>
</g>
<g>
</g>
<g>
</g>
<g>
</g>
<g>
</g>
<g>
</g>
<g>
</g>
</svg>
