<?xml version="1.0" encoding="iso-8859-1"?>
<!-- Generator: Adobe Illustrator 19.0.0, SVG Export Plug-In . SVG Version: 6.00 Build 0)  -->
<svg version="1.1" id="Layer_1" xmlns="http://www.w3.org/2000/svg" xmlns:xlink="http://www.w3.org/1999/xlink" x="0px" y="0px"
	 viewBox="0 0 512 512" style="enable-background:new 0 0 512 512;" xml:space="preserve">
<g>
	<g>
		<path d="M501.93,223.669c4.391,0,7.95-3.56,7.95-7.95V63.072c0-4.391-3.56-7.95-7.95-7.95h-22.763
			C463.509,22.544,430.182,0,391.685,0c-38.553,0-71.922,22.612-87.549,55.267c-0.484-0.092-0.984-0.145-1.495-0.145h-23.321
			c-4.391,0-7.95,3.56-7.95,7.95s3.56,7.95,7.95,7.95h18.907c-1.615,5.808-2.704,11.833-3.209,18.021H90.634
			c-4.391,0-7.95,3.56-7.95,7.95c0,18.996-15.455,34.451-34.451,34.451c-4.391,0-7.95,3.56-7.95,7.95v67.843
			c0,0.123,0.013,0.244,0.018,0.366c-10.704,15.593-16.979,34.455-16.979,54.756c0,10.544,1.698,20.698,4.823,30.211H18.021V71.023
			h215.718c4.391,0,7.95-3.56,7.95-7.95s-3.56-7.95-7.95-7.95H10.07c-4.391,0-7.95,3.56-7.95,7.95v373.135
			c0,4.391,3.56,7.95,7.95,7.95h40.282c4.391,0,7.95-3.56,7.95-7.95s-3.56-7.95-7.95-7.95H18.021v-18.021h208.947
			c-0.077,1.581-0.119,3.171-0.119,4.77c0,4.495,0.315,8.917,0.909,13.25H92.754c-4.391,0-7.95,3.56-7.95,7.95s3.56,7.95,7.95,7.95
			h138.574C243.733,483.439,280.513,512,323.843,512c43.329,0,80.111-28.561,92.515-67.843h85.572c4.391,0,7.95-3.56,7.95-7.95V256
			c0-4.391-3.56-7.95-7.95-7.95s-7.95,3.56-7.95,7.95v36.571H212.485c1.902-5.788,3.278-11.813,4.06-18.021h204.821
			c4.391,0,7.95-3.56,7.95-7.95c0-18.675,14.806-34.451,32.331-34.451c4.391,0,7.95-3.56,7.95-7.95v-67.843
			c0-0.501-0.052-0.99-0.141-1.466c12.069-16.17,19.222-36.213,19.222-57.896c0-8.992-1.235-17.702-3.536-25.971h8.836v144.696
			C493.979,220.11,497.539,223.669,501.93,223.669z M120.315,181.267c44.715,0,81.093,36.378,81.093,81.093
			c0,44.715-36.379,81.093-81.093,81.093s-81.093-36.378-81.093-81.093C39.222,217.646,75.6,181.267,120.315,181.267z
			 M18.021,308.472h15.371c0.524,0,1.035-0.054,1.531-0.151c3.537,6.545,7.807,12.637,12.695,18.171H18.021V308.472z
			 M18.021,342.393h47.172c0.123,0,0.244-0.013,0.366-0.018c15.593,10.704,34.455,16.979,54.756,16.979
			c20.302,0,39.163-6.274,54.756-16.979c0.122,0.005,0.242,0.018,0.366,0.018h84.177c-6.009,5.322-11.357,11.374-15.9,18.021H18.021
			V342.393z M229.073,394.335H18.021v-18.021h216.889C232.402,382.056,230.436,388.083,229.073,394.335z M323.843,496.099
			c-44.715,0-81.093-36.378-81.093-81.093s36.378-81.093,81.093-81.093s81.093,36.379,81.093,81.093
			S368.557,496.099,323.843,496.099z M493.979,428.257h-74.052c0.595-4.333,0.909-8.756,0.909-13.25c0-1.6-0.041-3.19-0.119-4.77
			h73.262V428.257z M493.979,394.335h-75.368c-1.362-6.252-3.329-12.28-5.836-18.021h81.203V394.335z M493.979,360.414h-89.573
			c-0.142,0-0.28,0.014-0.42,0.021c-4.545-6.655-9.899-12.714-15.914-18.042h105.908V360.414z M493.979,308.472v18.021H366.244
			c-0.732,0-1.438,0.107-2.113,0.293c-12.277-5.629-25.922-8.773-40.289-8.773s-28.012,3.144-40.289,8.773
			c-0.673-0.185-1.38-0.293-2.113-0.293h-88.428c4.851-5.492,9.094-11.532,12.616-18.021H493.979z M453.699,216.966
			c-20.04,3.639-36.31,20.721-39.653,41.684H217.231c-1.958-51.769-44.677-93.284-96.916-93.284
			c-24.566,0-47.024,9.185-64.133,24.295v-42.943c21.41-3.41,38.364-20.364,41.775-41.774H295.02
			c4.058,49.777,45.861,89.044,96.666,89.044c23.564,0,45.188-8.45,62.012-22.473V216.966z M391.685,178.087
			c-44.715,0-81.093-36.379-81.093-81.093s36.378-81.093,81.093-81.093s81.093,36.378,81.093,81.093S436.4,178.087,391.685,178.087z
			"/>
	</g>
</g>
<g>
	<g>
		<path d="M285.681,151.586c4.391,0,7.95-3.56,7.95-7.95s-3.56-7.95-7.95-7.95H263.95v-9.01c0-4.391-3.56-7.95-7.95-7.95
			s-7.95,3.56-7.95,7.95v9.01h-6.89c-10.228,0-18.551,8.322-18.551,18.551v16.961c0,10.228,8.322,18.551,18.551,18.551h6.89v22.261
			h-21.731c-4.391,0-7.95,3.56-7.95,7.95s3.56,7.95,7.95,7.95h21.731v9.01c0,4.391,3.56,7.95,7.95,7.95s7.95-3.56,7.95-7.95v-9.01
			h6.89c10.228,0,18.551-8.322,18.551-18.551v-16.961c0-10.228-8.322-18.551-18.551-18.551h-6.89v-22.261H285.681z M248.05,173.847
			h-6.89c-1.461,0-2.65-1.189-2.65-2.65v-16.961c0-1.461,1.189-2.65,2.65-2.65h6.89V173.847z M270.841,189.747
			c1.461,0,2.65,1.189,2.65,2.65v16.961c0,1.461-1.189,2.65-2.65,2.65h-6.89v-22.261H270.841z"/>
	</g>
</g>
<g>
	<g>
		<path d="M149.996,233.209c4.391,0,7.95-3.56,7.95-7.95s-3.56-7.95-7.95-7.95h-21.731v-9.01c0-4.391-3.56-7.95-7.95-7.95
			s-7.95,3.56-7.95,7.95v9.01h-6.89c-10.228,0-18.551,8.322-18.551,18.551v16.961c0,10.228,8.322,18.551,18.551,18.551h6.89v22.261
			H90.634c-4.391,0-7.95,3.56-7.95,7.95s3.56,7.95,7.95,7.95h21.731v9.01c0,4.391,3.56,7.95,7.95,7.95s7.95-3.56,7.95-7.95v-9.01
			h6.89c10.228,0,18.551-8.322,18.551-18.551v-16.961c0-10.228-8.322-18.551-18.551-18.551h-6.89v-22.261H149.996z M112.364,255.47
			h-6.89c-1.461,0-2.65-1.189-2.65-2.65v-16.961c0-1.461,1.189-2.65,2.65-2.65h6.89V255.47z M135.155,271.371
			c1.461,0,2.65,1.189,2.65,2.65v16.961c0,1.461-1.189,2.65-2.65,2.65h-6.89v-22.261H135.155z"/>
	</g>
</g>
<g>
	<g>
		<path d="M353.524,385.855c4.391,0,7.95-3.56,7.95-7.95s-3.56-7.95-7.95-7.95h-21.731v-9.01c0-4.391-3.56-7.95-7.95-7.95
			s-7.95,3.56-7.95,7.95v9.01h-6.89c-10.228,0-18.551,8.322-18.551,18.551v16.961c0,10.228,8.322,18.551,18.551,18.551h6.89v22.261
			h-21.731c-4.391,0-7.95,3.56-7.95,7.95c0,4.391,3.56,7.95,7.95,7.95h21.731v9.01c0,4.391,3.56,7.95,7.95,7.95s7.95-3.56,7.95-7.95
			v-9.01h6.89c10.228,0,18.551-8.322,18.551-18.551v-16.961c0-10.228-8.322-18.551-18.551-18.551h-6.89v-22.261H353.524z
			 M315.892,408.116h-6.89c-1.461,0-2.65-1.189-2.65-2.65v-16.961c0-1.461,1.189-2.65,2.65-2.65h6.89V408.116z M338.683,424.017
			c1.461,0,2.65,1.189,2.65,2.65v16.961c0,1.461-1.189,2.65-2.65,2.65h-6.89v-22.261H338.683z"/>
	</g>
</g>
<g>
	<g>
		<path d="M421.366,67.843c4.391,0,7.95-3.56,7.95-7.95s-3.56-7.95-7.95-7.95h-21.731v-9.01c0-4.391-3.56-7.95-7.95-7.95
			s-7.95,3.56-7.95,7.95v9.01h-6.89c-10.228,0-18.551,8.322-18.551,18.551v16.961c0,10.228,8.322,18.551,18.551,18.551h6.89v22.261
			h-21.731c-4.391,0-7.95,3.56-7.95,7.95s3.56,7.95,7.95,7.95h21.731v9.01c0,4.391,3.56,7.95,7.95,7.95s7.95-3.56,7.95-7.95v-9.01
			h6.89c10.228,0,18.551-8.322,18.551-18.551v-16.961c0-10.228-8.322-18.551-18.551-18.551h-6.89V67.843H421.366z M383.735,90.104
			h-6.89c-1.461,0-2.65-1.189-2.65-2.65V70.493c0-1.461,1.189-2.65,2.65-2.65h6.89V90.104z M406.526,106.004
			c1.461,0,2.65,1.189,2.65,2.65v16.961c0,1.461-1.189,2.65-2.65,2.65h-6.89v-22.261H406.526z"/>
	</g>
</g>
<g>
</g>
<g>
</g>
<g>
</g>
<g>
</g>
<g>
</g>
<g>
</g>
<g>
</g>
<g>
</g>
<g>
</g>
<g>
</g>
<g>
</g>
<g>
</g>
<g>
</g>
<g>
</g>
<g>
</g>
</svg>
