<?xml version="1.0" encoding="UTF-8" standalone="no"?>
<!-- Created with Inkscape (http://www.inkscape.org/) -->

<svg
   xmlns:dc="http://purl.org/dc/elements/1.1/"
   xmlns:cc="http://creativecommons.org/ns#"
   xmlns:rdf="http://www.w3.org/1999/02/22-rdf-syntax-ns#"
   xmlns:svg="http://www.w3.org/2000/svg"
   xmlns="http://www.w3.org/2000/svg"
   xmlns:sodipodi="http://sodipodi.sourceforge.net/DTD/sodipodi-0.dtd"
   xmlns:inkscape="http://www.inkscape.org/namespaces/inkscape"
   version="1.1"
   id="svg6576"
   inkscape:version="0.91+devel r"
   width="1000"
   height="1153.3666"
   viewBox="0 0 1000 1153.3666"
   sodipodi:docname="logo.svg">
  <metadata
     id="metadata4253">
    <rdf:RDF>
      <cc:Work
         rdf:about="">
        <dc:format>image/svg+xml</dc:format>
        <dc:type
           rdf:resource="http://purl.org/dc/dcmitype/StillImage" />
        <dc:title></dc:title>
      </cc:Work>
    </rdf:RDF>
  </metadata>
  <defs
     id="defs4251" />
  <sodipodi:namedview
     pagecolor="#ffffff"
     bordercolor="#666666"
     borderopacity="1"
     objecttolerance="10"
     gridtolerance="10"
     guidetolerance="10"
     inkscape:pageopacity="0"
     inkscape:pageshadow="2"
     inkscape:window-width="1280"
     inkscape:window-height="753"
     inkscape:document-units="px"
     id="namedview4249"
     showgrid="false"
     fit-margin-top="0"
     fit-margin-left="0"
     fit-margin-right="0"
     fit-margin-bottom="0"
     inkscape:zoom="0.125"
     inkscape:cx="487.17564"
     inkscape:cy="757.4974"
     inkscape:window-x="0"
     inkscape:window-y="0"
     inkscape:window-maximized="1"
     inkscape:current-layer="svg6576" />
  <path id="path4283" d="M 678.228 1146.198 L 673.683 1139.029 L 684.216 1128.326 C 695.944 1116.41 698.115 1115.701 703.768 1121.948 C 707.534 1126.109 707.211 1126.785 695.228 1139.82 L 682.774 1153.367 L 678.228 1146.198 Z M 273.728 1130.748 L 262.631 1117.109 L 268.094 1112.943 L 273.558 1108.777 L 284.788 1119.951 C 295.979 1131.085 296.005 1131.145 292.289 1137.27 C 290.238 1140.651 287.719 1143.635 286.692 1143.901 C 285.664 1144.168 279.831 1138.249 273.728 1130.748 Z M 673.513 1121.003 C 678.986 1115.426 685 1110.863 686.877 1110.863 C 690.452 1110.863 669.48 1130.865 665.721 1131.041 C 664.533 1131.096 668.04 1126.579 673.513 1121.003 Z M 291.533 1113.064 C 285.457 1106.896 281.505 1101.85 282.749 1101.85 C 285.678 1101.85 305.177 1121.68 303.7 1123.157 C 303.083 1123.774 297.608 1119.232 291.533 1113.064 Z M 649.169 1112.445 C 645.208 1108.359 641.967 1104.323 641.967 1103.478 C 641.967 1101.087 659.285 1092.837 664.304 1092.837 C 669.563 1092.837 680.273 1097.376 680.273 1099.605 C 680.273 1101.097 658.912 1119.876 657.215 1119.876 C 656.751 1119.876 653.13 1116.532 649.169 1112.445 Z M 301.16 1102.8 C 295.273 1097.184 290.457 1092.261 290.457 1091.859 C 290.457 1091.458 293.505 1089.868 297.23 1088.324 C 305.735 1084.802 316.794 1086.885 323.617 1093.294 L 328.827 1098.189 L 321.593 1105.653 C 317.614 1109.757 313.797 1113.093 313.111 1113.064 C 312.425 1113.035 307.047 1108.416 301.16 1102.8 Z M 444.415 1090.637 C 450.84 1083.002 453.749 1072.675 451.485 1065.541 C 450.086 1061.133 450.545 1060.82 456.387 1062.196 C 471.843 1065.84 495.504 1073.328 495.5 1074.575 C 495.49 1077.199 474.005 1090.477 464.239 1093.894 C 458.816 1095.791 450.868 1097.343 446.576 1097.343 L 438.772 1097.343 L 444.415 1090.637 Z M 556.343 1094.873 C 547.623 1093.173 533.81 1088.59 533.81 1087.396 C 533.81 1087.182 539.713 1080.938 546.928 1073.519 C 559.809 1060.274 560.206 1060.063 568.898 1061.879 C 573.766 1062.896 580.031 1063.161 582.819 1062.467 C 585.607 1061.773 587.889 1062.161 587.889 1063.329 C 587.889 1064.497 591.421 1070.08 595.739 1075.736 L 603.589 1086.021 L 598.556 1089.303 C 593.395 1092.667 575.906 1097.384 569.863 1097.041 C 568.004 1096.936 561.92 1095.96 556.343 1094.873 Z M 397.375 1087.676 C 391.116 1084.938 383.005 1080.448 379.349 1077.698 L 372.701 1072.7 L 380.815 1072.629 C 390.174 1072.547 402.704 1068.738 407.683 1064.462 C 412.376 1060.432 436.92 1062.824 436.92 1067.312 C 436.92 1073.473 430.547 1085.551 425.39 1089.163 C 418.398 1094.06 411.074 1093.671 397.375 1087.677 L 397.375 1087.676 Z M 618.354 1077.597 C 610.944 1069.556 602.552 1061.915 599.706 1060.619 C 593.092 1057.605 594.097 1054.869 603.782 1049.526 C 620.271 1040.428 641.456 1048.076 658.971 1069.451 L 667.055 1079.317 L 660.291 1079.317 C 651.861 1079.317 642.229 1082.877 636.334 1088.171 C 631.931 1092.125 631.52 1091.884 618.354 1077.597 Z M 331.148 1079.849 C 323.064 1073.643 319.534 1072.319 312.785 1072.963 L 304.43 1073.76 L 311.212 1065.197 C 317.243 1057.582 327.085 1049.029 334.83 1044.67 C 336.53 1043.714 339.099 1046.696 341.822 1052.788 C 344.19 1058.084 348.72 1064.976 351.888 1068.104 L 357.65 1073.791 L 349.403 1080.661 L 341.156 1087.532 L 331.148 1079.849 Z M 508.077 1070.446 C 503.497 1066.806 490.176 1060.639 478.474 1056.741 C 466.773 1052.842 457.199 1049.319 457.199 1048.91 C 457.199 1048.501 463.436 1043.91 471.058 1038.707 L 484.916 1029.247 L 502.04 1034.155 C 524.172 1040.498 543.242 1051.673 542.348 1057.776 C 541.66 1062.469 524.219 1077.064 519.299 1077.064 C 517.707 1077.064 512.657 1074.086 508.077 1070.446 Z M 363.311 1057.577 C 357.205 1056.255 349.431 1040.347 346.705 1023.595 C 344.876 1012.357 345.148 1006.534 348.2 991.631 L 349.315 986.189 L 353.431 992.957 C 358.01 1000.487 368.461 1009.466 372.647 1009.466 C 374.141 1009.466 376.635 1015.146 378.189 1022.088 C 380.115 1030.694 383.457 1037.414 388.695 1043.212 C 394.71 1049.87 395.751 1052.232 393.495 1054.104 C 390.165 1056.868 370.493 1059.131 363.311 1057.577 Z M 556.056 1046.261 C 554.355 1044.192 545.969 1039.251 537.421 1035.281 L 521.879 1028.064 L 535.168 1023.082 C 554.777 1015.731 583.801 1017.045 602.287 1026.122 L 615.559 1032.638 L 605.297 1036.534 C 599.653 1038.676 592.004 1042.588 588.298 1045.227 C 579.735 1051.324 560.718 1051.934 556.056 1046.261 Z M 431.287 1043.04 C 427.569 1041.89 420.909 1041.529 416.487 1042.236 C 408.83 1043.461 408.049 1042.955 400.118 1031.625 L 391.79 1019.729 L 396.892 1017.77 C 403.451 1015.252 444.418 1017.299 455.747 1020.712 L 464.434 1023.328 L 452.367 1034.321 C 445.73 1040.367 439.793 1045.272 439.173 1045.222 C 438.553 1045.172 435.004 1044.19 431.287 1043.04 Z M 634.595 1032.958 C 621.122 1026.043 619.606 1024.623 621.639 1020.824 C 622.905 1018.458 623.968 1013.16 624.002 1009.05 C 624.059 1002.04 624.983 1001.162 638.987 994.819 C 647.195 991.101 654.689 987.749 655.64 987.37 C 658.458 986.247 662.715 1011.193 661.052 1019.087 C 659.211 1027.824 653.288 1041.055 651.287 1040.901 C 650.499 1040.84 642.987 1037.266 634.595 1032.958 Z M 438.046 1001.751 C 419.294 997.913 398.614 991.017 398.614 988.601 C 398.614 985.94 409.825 974.807 415.639 971.696 C 419.017 969.888 425.794 970.069 441.273 972.381 C 452.846 974.11 462.698 975.908 463.167 976.376 C 463.635 976.845 462.484 980.9 460.609 985.388 C 458.733 989.876 457.199 996.115 457.199 999.253 C 457.199 1005.618 457.042 1005.638 438.046 1001.751 Z M 475.527 1003.301 C 468.023 1002.391 467.957 1002.283 469.402 993.248 C 471.498 980.14 474.221 976.241 482.53 974.452 C 493.572 972.073 502.06 967.174 516.069 955.091 L 528.748 944.156 L 530.059 950.714 C 530.78 954.32 534.627 960.98 538.608 965.514 L 545.846 973.757 L 539.265 979.264 C 515.431 999.208 497.505 1005.968 475.527 1003.301 Z M 531.058 1003.418 C 525.114 1001.858 552.678 981.823 567.295 977.079 C 573.938 974.923 579.941 973.727 580.636 974.422 C 582.382 976.168 577.083 998.309 574.042 1001.973 C 571.637 1004.871 540.571 1005.915 531.058 1003.418 Z M 591.392 996.509 C 592.345 994.34 593.512 988.51 593.986 983.553 C 595.741 965.17 595.413 965.533 619.978 954.81 C 632.692 949.261 645.462 943.982 648.357 943.08 C 653.108 941.6 653.382 941.886 651.174 946.012 C 649.828 948.527 648.712 955.467 648.693 961.435 C 648.675 967.403 647.913 973.423 647.003 974.812 C 644.763 978.23 618.91 991.087 603.882 996.257 C 589.019 1001.371 589.258 1001.366 591.392 996.509 Z M 371.293 991.701 C 368.188 989.259 363.791 983.145 361.523 978.115 L 357.399 968.969 L 363.443 960.247 C 372.867 946.648 392.257 934.041 410.335 929.758 L 416.423 928.316 L 413.152 936.146 C 411.353 940.452 409.88 948.071 409.88 953.076 C 409.88 960.143 408.547 963.306 403.916 967.231 C 394.649 975.085 388.602 981.241 382.526 989.004 L 376.94 996.143 L 371.293 991.701 Z M 471.95 961.62 C 469.659 960.338 458.813 958.777 447.846 958.152 C 424.949 956.846 424.62 956.403 433.898 939.356 L 439.889 928.348 L 453.841 928.348 C 461.515 928.348 471.24 929.522 475.452 930.958 C 484.437 934.021 502.265 945.719 502.265 948.552 C 502.265 950.806 490.281 958.564 481.841 961.773 C 478.061 963.21 474.699 963.158 471.95 961.62 Z M 550.969 959.695 C 545.262 955.206 538.317 944.413 538.317 940.034 C 538.317 937.192 562.144 926.756 575.867 923.589 C 582.597 922.035 592.287 921.618 599.81 922.558 C 612.21 924.107 627.346 931.79 626.755 936.234 C 626.316 939.539 597.381 950.872 589.236 950.93 C 581.666 950.984 564.605 957.894 562.121 961.912 C 559.927 965.463 557.753 965.031 550.969 959.695 Z" style="fill-opacity: 1; stroke-width: 2.25327; fill: #000000;"></path>
</svg>
