<?xml version="1.0" encoding="iso-8859-1"?>
<!-- Generator: Adobe Illustrator 19.0.0, SVG Export Plug-In . SVG Version: 6.00 Build 0)  -->
<svg version="1.1" id="Layer_1" xmlns="http://www.w3.org/2000/svg" xmlns:xlink="http://www.w3.org/1999/xlink" x="0px" y="0px"
	 viewBox="0 0 512 512" style="enable-background:new 0 0 512 512;" xml:space="preserve">
<g>
	<g>
		<path d="M371.093,0H149.227c-18.773,0-34.133,15.36-34.133,34.133v443.733c0,18.773,15.36,34.133,34.133,34.133h221.867
			c18.773,0,34.133-15.36,34.133-34.133V34.133C405.227,15.36,389.867,0,371.093,0z M388.16,477.867
			c0,9.387-7.68,17.067-17.067,17.067H149.227c-9.387,0-17.067-7.68-17.067-17.067V34.133c0-9.387,7.68-17.067,17.067-17.067
			h221.867c9.387,0,17.067,7.68,17.067,17.067V477.867z"/>
	</g>
</g>
<g>
	<g>
		<path d="M115.093,51.2v392.533h290.133V51.2H115.093z M388.16,426.667h-256v-358.4h256V426.667z"/>
	</g>
</g>
<g>
	<g>
		<path d="M294.293,25.6h-42.667c-5.12,0-8.533,3.413-8.533,8.533c0,5.12,3.413,8.533,8.533,8.533h42.667
			c5.12,0,8.533-3.413,8.533-8.533C302.827,29.013,299.413,25.6,294.293,25.6z"/>
	</g>
</g>
<g>
	<g>
		<path d="M226.027,25.6h-8.533c-5.12,0-8.533,3.413-8.533,8.533c0,5.12,3.413,8.533,8.533,8.533h8.533
			c5.12,0,8.533-3.413,8.533-8.533C234.56,29.013,231.147,25.6,226.027,25.6z"/>
	</g>
</g>
<g>
	<g>
		<path d="M115.093,76.8c-5.12,0-8.533,3.413-8.533,8.533v8.533c0,5.12,3.413,8.533,8.533,8.533c5.12,0,8.533-3.413,8.533-8.533
			v-8.533C123.627,80.213,120.213,76.8,115.093,76.8z"/>
	</g>
</g>
<g>
	<g>
		<path d="M115.093,110.933c-5.12,0-8.533,3.413-8.533,8.533V128c0,5.12,3.413,8.533,8.533,8.533c5.12,0,8.533-3.413,8.533-8.533
			v-8.533C123.627,114.347,120.213,110.933,115.093,110.933z"/>
	</g>
</g>
<g>
	<g>
		<path d="M115.093,145.067c-5.12,0-8.533,3.413-8.533,8.533v8.533c0,5.12,3.413,8.533,8.533,8.533c5.12,0,8.533-3.413,8.533-8.533
			V153.6C123.627,148.48,120.213,145.067,115.093,145.067z"/>
	</g>
</g>
<g>
	<g>
		<path d="M260.16,435.2c-18.773,0-34.133,15.36-34.133,34.133c0,18.773,15.36,34.133,34.133,34.133s34.133-15.36,34.133-34.133
			C294.293,450.56,278.933,435.2,260.16,435.2z M260.16,486.4c-9.387,0-17.067-7.68-17.067-17.067s7.68-17.067,17.067-17.067
			s17.067,7.68,17.067,17.067S269.547,486.4,260.16,486.4z"/>
	</g>
</g>
<g>
	<g>
		<path d="M351.467,289.28l-28.16-20.48l-0.853-0.853c-1.707,0-2.56-1.707-2.56-3.413v-10.24c0.853-0.853,0.853-1.707,1.707-2.56
			c0.853-1.707,5.973-7.68,5.12-6.827c1.707-2.56,3.413-5.12,4.267-7.68c5.973-3.413,9.387-9.387,9.387-16.213v-14.507
			c0-4.267-0.853-7.68-3.413-11.093v-17.067c0-5.973-1.707-13.653-6.827-21.333c-8.533-13.653-23.04-21.333-44.373-21.333
			c-22.187,0-35.84,7.68-43.52,20.48c-4.267,6.827-5.12,14.507-5.12,20.48v17.067c-2.56,3.413-3.413,6.827-3.413,11.093v14.507
			c0,5.12,2.56,10.24,5.973,13.653c1.707,5.12,3.413,10.24,5.973,14.507c1.707,4.267,4.267,7.68,5.973,10.24v10.24
			c0,1.707-0.853,3.413-2.56,3.413l-31.573,17.067c-11.947,6.827-19.627,18.773-19.627,32.427V332.8c0,5.12,3.413,8.533,8.533,8.533
			h156.16c5.12,0,8.533-3.413,8.533-8.533v-11.093C371.093,308.053,363.413,295.253,351.467,289.28z M354.027,324.267h-138.24v-2.56
			c0-6.827,4.267-13.653,10.24-17.067l31.573-17.067c6.827-3.413,11.093-11.093,11.093-18.773V256c0-1.707-0.853-4.267-1.707-5.12
			c0,0-0.853-0.853-1.707-2.56c-1.707-1.707-2.56-4.267-4.267-6.827c-2.56-4.267-4.267-8.533-5.12-13.653
			c-0.853-2.56-1.707-4.267-3.413-5.12c-0.853,0-0.853-0.853-0.853-1.707v-14.507c0-0.853,0-0.853,0.853-1.707
			c1.707-1.707,2.56-4.267,2.56-5.973v-20.48v-0.853c0-3.413,0.853-7.68,2.56-11.093c4.267-7.68,12.8-11.947,28.16-11.947
			c16.213,0,25.6,5.12,29.867,12.8c1.707,2.56,2.56,5.973,3.413,8.533c0,1.707,0.853,3.413,0.853,3.413v20.48
			c0,2.56,0.853,5.12,2.56,5.973c0.853,0,0.853,0.853,0.853,1.707v14.507c0,0.853-0.853,1.707-1.707,1.707
			c-2.56,0.853-5.12,2.56-5.973,5.12s-1.707,4.267-3.413,5.973c0.853-0.853-4.267,5.12-5.12,6.827
			c-0.853,1.707-1.707,2.56-2.56,3.413c-0.853,2.56-1.707,4.267-1.707,5.973v13.653c0,7.68,4.267,15.36,11.093,18.773l28.16,20.48
			l0.853,0.853c6.827,3.413,11.093,10.24,11.093,17.92V324.267z"/>
	</g>
</g>
<g>
	<g>
		<path d="M266.987,250.027c0,0-0.853-0.853-1.707-2.56c-1.707-1.707-2.56-4.267-4.267-6.827v-0.853c0-0.853-0.853-1.707-0.853-2.56
			c0,0,0,0,0-0.853s-0.853-1.707-0.853-2.56s-0.853-1.707-0.853-2.56c0,0,0,0,0-0.853s-0.853-1.707-0.853-3.413
			c-0.853-2.56-1.707-4.267-3.413-5.12c-0.853,0-0.853-0.853-0.853-1.707v-14.507c0-0.853,0-0.853,0.853-1.707
			c1.707-1.707,2.56-4.267,2.56-5.973v-19.627c0-2.56-0.853-5.12-3.413-6.827c-6.827-5.12-20.48-9.387-34.133-9.387
			c-17.92,0-29.867,5.973-36.693,16.213c-4.267,5.973-5.973,12.8-5.973,17.067v14.507c-2.56,2.56-3.413,5.973-3.413,10.24v11.947
			c0,5.12,1.707,9.387,5.12,12.8c1.707,5.12,4.267,10.24,8.533,16.213c2.56,3.413,5.12,5.973,6.827,8.533v7.68
			c0,0.853-0.853,1.707-1.707,2.56l-25.6,14.507c-10.24,5.12-17.067,16.213-17.067,29.013v9.387c0,5.12,3.413,8.533,8.533,8.533
			h49.493c5.12,0,8.533-3.413,8.533-8.533v-11.093c0-6.827,4.267-13.653,10.24-17.067l21.333-11.947l10.24-5.973
			c6.827-3.413,11.093-11.093,11.093-18.773v-12.8C268.693,253.44,267.84,250.88,266.987,250.027z M250.773,268.8
			c0,1.707-0.853,3.413-2.56,3.413l-9.387,5.12c0,0-0.853,0-0.853,0.853l-20.48,11.093c-11.947,6.827-19.627,18.773-19.627,32.427
			v2.56h-31.573v-1.707c0-5.973,3.413-11.093,8.533-13.653l23.893-15.36c5.973-3.413,9.387-9.387,9.387-17.067v-11.093
			c0-2.56-0.853-4.267-2.56-5.973c0,0-0.853-0.853-2.56-2.56c-1.707-1.707-3.413-4.267-5.12-5.973
			c-3.413-4.267-5.12-8.533-5.973-12.8c-0.853-2.56-1.707-4.267-3.413-5.12c0,0,0,0,0-0.853V220.16c0,0,0,0,0.853,0
			c1.707-1.707,2.56-4.267,2.56-5.973v-17.92c0-1.707,0.853-4.267,2.56-7.68c3.413-5.12,10.24-8.533,23.04-8.533
			c7.68,0,15.36,1.707,19.627,3.413v11.947c-2.56,3.413-3.413,6.827-3.413,11.093v14.507c0,5.12,2.56,10.24,5.973,13.653v0.853
			c0,0.853,0,0.853,0,0.853c0,1.707,0.853,2.56,0.853,3.413c0,0,0,0,0,0.853s0.853,1.707,1.707,3.413c0,0.853,0,0.853,0,0.853
			c0,0.853,0.853,1.707,1.707,2.56c0,0.853,0,0.853,0.853,0.853c2.56,4.267,4.267,7.68,5.973,10.24V268.8z"/>
	</g>
</g>
<g>
	<g>
		<path d="M80.96,34.133c-14.507,0-25.6-11.093-25.6-25.6c0-11.093-17.067-11.093-17.067,0c0,14.507-11.093,25.6-25.6,25.6
			C1.6,34.133,1.6,51.2,12.693,51.2c14.507,0,25.6,11.093,25.6,25.6c0,11.093,17.067,11.093,17.067,0
			c0-14.507,11.093-25.6,25.6-25.6C92.053,51.2,92.053,34.133,80.96,34.133z M46.827,51.2c-2.56-3.413-5.12-5.973-8.533-8.533
			c3.413-2.56,5.973-5.12,8.533-8.533c2.56,3.413,5.12,5.973,8.533,8.533C51.947,45.227,49.387,47.787,46.827,51.2z"/>
	</g>
</g>
<g>
	<g>
		<path d="M464.96,119.467c-5.12,0-8.533,3.413-8.533,8.533v34.133c0,5.12,3.413,8.533,8.533,8.533s8.533-3.413,8.533-8.533V128
			C473.493,122.88,470.08,119.467,464.96,119.467z"/>
	</g>
</g>
<g>
	<g>
		<path d="M482.027,136.533h-34.133c-5.12,0-8.533,3.413-8.533,8.533c0,5.12,3.413,8.533,8.533,8.533h34.133
			c5.12,0,8.533-3.413,8.533-8.533C490.56,139.947,487.147,136.533,482.027,136.533z"/>
	</g>
</g>
<g>
	<g>
		<path d="M63.893,366.933c-5.12,0-8.533,3.413-8.533,8.533S58.773,384,63.893,384s8.533-3.413,8.533-8.533
			S69.013,366.933,63.893,366.933z"/>
	</g>
</g>
<g>
	<g>
		<path d="M21.227,213.333c-5.12,0-8.533,3.413-8.533,8.533s3.413,8.533,8.533,8.533s8.533-3.413,8.533-8.533
			S26.347,213.333,21.227,213.333z"/>
	</g>
</g>
<g>
	<g>
		<path d="M439.36,298.667c-5.12,0-8.533,3.413-8.533,8.533s3.413,8.533,8.533,8.533s8.533-3.413,8.533-8.533
			S444.48,298.667,439.36,298.667z"/>
	</g>
</g>
<g>
	<g>
		<path d="M499.093,477.867c-5.12,0-8.533,3.413-8.533,8.533s3.413,8.533,8.533,8.533s8.533-3.413,8.533-8.533
			S504.213,477.867,499.093,477.867z"/>
	</g>
</g>
<g>
</g>
<g>
</g>
<g>
</g>
<g>
</g>
<g>
</g>
<g>
</g>
<g>
</g>
<g>
</g>
<g>
</g>
<g>
</g>
<g>
</g>
<g>
</g>
<g>
</g>
<g>
</g>
<g>
</g>
</svg>
