<?xml version="1.0" encoding="UTF-8"?>
<!DOCTYPE svg PUBLIC "-//W3C//DTD SVG 1.1//EN" "http://www.w3.org/Graphics/SVG/1.1/DTD/svg11.dtd">
<!-- Creator: CorelDRAW (Evaluation Version) -->
<svg xmlns="http://www.w3.org/2000/svg" xml:space="preserve" width="283mm" height="68.447mm" version="1.1" style="shape-rendering:geometricPrecision; text-rendering:geometricPrecision; image-rendering:optimizeQuality; fill-rule:evenodd; clip-rule:evenodd"
viewBox="0 0 28300 6844.7"
 xmlns:xlink="http://www.w3.org/1999/xlink"
 xmlns:xodm="http://www.corel.com/coreldraw/odm/2003">
 <defs>
  <style type="text/css">
   <![CDATA[
    .fil0 {fill:#FEFEFE}
    .fil1 {fill:white}
    .fil2 {fill:white;fill-rule:nonzero}
   ]]>
  </style>
 </defs>
 <g id="Layer_x0020_1">
  <metadata id="CorelCorpID_0Corel-Layer"/>
  <g id="_2761862887424">
   <path class="fil0" d="M3553.34 138.81c1823.68,0 3297.37,1473.67 3297.37,3297.35 0,1823.68 -1473.69,3297.36 -3297.37,3297.36 -1823.69,0 -3315.79,-1473.68 -3315.79,-3297.36 0,-1823.68 1492.1,-3297.35 3315.79,-3297.35zm-128.95 1271.05c276.32,184.2 552.64,368.41 792.11,571.04 36.84,-18.41 73.69,-18.41 110.52,-18.41 18.43,0 55.26,0 92.11,18.41 184.21,-239.47 405.26,-460.52 681.58,-681.57 -221.06,257.89 -405.26,497.37 -589.47,736.84 36.83,55.26 73.68,110.52 73.68,184.2 0,36.85 0,73.69 -18.42,92.11 607.9,626.31 1031.57,1381.58 1086.84,2284.2 73.69,0 147.37,36.85 184.21,92.11 73.68,-36.85 147.37,-55.26 221.06,-92.11 -55.27,55.26 -128.96,92.11 -202.64,128.96 36.85,92.09 -36.84,202.62 -165.79,257.88 0,18.43 -18.42,18.43 -36.84,18.43 0,110.53 -18.42,202.63 -36.84,313.15 0,-110.52 0,-202.62 -18.43,-294.73 -92.09,0 -165.79,-36.85 -202.62,-92.11 -442.11,147.37 -994.74,257.9 -1602.63,294.74 -18.43,36.84 -36.85,73.68 -55.26,110.53 294.73,221.05 626.31,442.1 957.89,644.73 -368.43,-165.79 -700.01,-368.42 -1031.59,-571.05 36.85,257.9 110.53,515.78 202.64,810.53 -147.37,-239.48 -239.47,-515.8 -313.16,-792.11l-18.42 0c-128.94,0 -221.05,-92.1 -257.9,-202.63 -552.63,-18.42 -1142.1,-110.52 -1694.73,-313.16 460.53,92.11 1013.16,128.95 1584.21,147.37 -736.84,-571.05 -1307.89,-1252.63 -1713.16,-2044.73 -18.42,0 -36.84,0 -55.26,0 -147.37,0 -257.89,-110.52 -257.89,-257.9 0,-92.1 36.83,-165.78 110.52,-221.05 -110.52,-294.73 -202.63,-589.47 -276.31,-921.05 -386.84,497.37 -626.32,1142.1 -626.32,1823.68 0,1657.89 1344.74,2984.2 3002.63,2984.2 1639.47,0 2984.21,-1326.31 2984.21,-2984.2 0,-1657.89 -1344.74,-2984.2 -2984.21,-2984.2 -976.32,0 -1823.68,442.1 -2376.31,1160.52 110.53,294.74 239.47,589.47 386.84,884.21 0,0 18.42,0 36.84,0l18.42 0c442.11,-1142.1 1381.58,-1805.25 2689.47,-1786.84 -1215.79,36.85 -2026.31,736.84 -2542.11,1823.68 55.27,55.27 110.53,128.95 110.53,221.05 0,73.69 -36.83,147.38 -92.1,184.21 239.47,405.27 497.37,792.11 810.52,1160.52 276.32,313.17 589.48,626.33 921.06,902.64 36.84,-36.84 92.11,-73.69 147.37,-92.11 -92.11,-810.53 92.1,-1694.73 644.73,-2523.68 -36.84,-55.26 -55.26,-110.52 -55.26,-165.79 0,-55.26 36.84,-128.94 73.69,-165.79 -202.64,-202.62 -442.11,-423.67 -700.01,-644.72zm2118.42 3205.25c-165.79,-884.21 -478.94,-1528.95 -1050,-2192.1 -55.26,36.84 -110.53,73.68 -165.79,73.68 -36.83,0 -73.68,-18.42 -110.52,-18.42 -239.47,386.84 -423.68,792.1 -515.79,1234.2 -92.11,350.01 -128.94,755.27 -92.11,1197.37 73.69,18.42 128.96,55.27 165.79,128.95 534.21,-36.84 1068.43,-92.1 1584.21,-221.06 18.42,-73.68 73.68,-147.36 165.79,-184.2l18.42 -18.42z"/>
   <path class="fil1" d="M8029.65 930.91c0,884.2 0,1768.41 0,2652.62 0,147.37 92.11,165.79 313.16,73.68 221.05,-110.53 313.16,-221.05 313.16,-349.99 0,-644.74 18.42,-1289.47 18.42,-1934.21 313.16,478.95 626.31,976.32 957.89,1455.26 73.69,128.95 165.79,128.95 257.9,0 313.16,-442.11 607.89,-865.78 921.06,-1307.89 0,681.57 0,1399.99 0,2081.57 18.41,147.37 147.36,128.95 349.99,36.84 165.79,-73.68 276.32,-184.2 294.73,-386.84 -18.41,-773.68 -18.41,-1547.36 -18.41,-2321.04 -18.42,-313.17 -607.9,-313.17 -626.31,0l0 221.05c-368.43,497.36 -718.43,1013.15 -1068.43,1510.52 -18.42,18.42 -18.42,18.42 -36.84,18.42 -350,-552.63 -700,-1086.84 -1050,-1621.05l0 -165.79c0,-313.15 -607.89,-276.32 -626.32,36.85zm15363.15 865.79c-331.58,534.2 -681.57,1049.99 -1031.57,1584.2 -92.11,165.78 18.42,331.57 239.47,239.48 552.63,-257.9 1105.26,-515.8 1639.48,-773.69 681.57,478.94 1344.73,939.47 1805.25,828.95 55.26,-18.43 55.26,-55.26 0,-92.11 -1436.84,-884.21 -1934.21,-1694.74 -2394.73,-2726.31 -55.26,-110.52 -184.21,-147.37 -313.16,-128.95 -147.36,0 -294.74,36.85 -276.32,184.22 55.26,313.15 221.05,589.46 331.58,884.21zm-534.2 1307.88l699.99 -1068.41c92.11,184.2 221.05,331.57 368.42,460.52l-1068.41 607.89zm-3113.17 -2063.15c0,792.1 0,1547.37 0,2339.47 0,110.52 110.53,202.63 257.9,276.31 110.53,36.85 368.43,92.11 350,-92.1 0,-331.58 0,-644.74 0,-976.31 331.58,331.57 644.74,663.15 957.9,994.73 128.94,128.94 276.32,128.94 423.68,92.11 36.84,-18.43 73.69,-36.85 110.52,-36.85 36.85,-18.41 18.43,-55.26 0,-73.68 -478.94,-515.79 -957.89,-1031.58 -1455.26,-1547.36 221.06,128.94 386.85,239.47 921.06,257.89 294.73,0 497.37,-110.53 644.73,-386.85 165.79,-368.41 0,-736.83 -165.79,-847.36 -478.94,-368.42 -1289.47,-294.73 -1823.68,-221.05 -128.95,18.42 -239.47,147.37 -221.06,221.05zm681.59 73.68c0,184.22 0,350.01 0,515.8 0,239.47 386.84,386.84 607.89,313.15 331.58,-128.95 460.53,-442.11 313.15,-699.99 -128.94,-257.9 -921.04,-331.58 -921.04,-128.96zm-4513.16 -110.52c386.84,0 755.27,0 1123.68,0 0,792.11 0,1565.79 0,2357.89 0,221.05 73.69,368.42 294.74,368.42 202.63,-18.43 350,-202.63 350,-368.42 0,-773.68 0,-1565.78 0,-2339.47 350,0 681.58,0 1031.58,0 128.95,0 147.36,147.36 294.74,165.79 239.47,36.84 405.26,-128.95 165.79,-331.58 -73.69,-55.26 -221.06,-110.52 -405.26,-110.52 -994.74,0 -2007.91,0 -3002.64,0 -165.79,0 -276.32,92.1 -294.73,184.21 -55.27,165.78 73.68,202.63 147.37,202.63 92.1,-18.43 165.79,-110.53 294.73,-128.95zm12010.52 368.42c-36.84,0 -110.53,18.42 -184.21,-55.26 -257.9,-331.58 -607.89,-405.26 -847.36,-405.26 -313.17,18.42 -423.69,184.2 -442.11,331.58 -55.26,331.57 294.73,515.78 681.58,699.99 294.73,165.79 589.47,294.74 773.68,460.53 313.16,257.89 294.73,663.16 55.26,957.89 -239.47,257.9 -571.05,386.84 -994.73,349.99 -589.48,-128.94 -736.84,-534.2 -736.84,-902.62 18.42,-147.37 239.47,-110.53 257.89,-36.85 73.69,276.32 294.74,442.11 497.36,534.22 221.06,73.68 589.48,202.63 755.27,-128.95 73.68,-239.48 -55.26,-405.27 -294.73,-552.63 -331.58,-184.22 -847.38,-350 -1031.59,-571.06 -257.89,-294.73 -257.89,-552.63 -221.05,-755.25 92.11,-331.58 368.43,-552.63 773.69,-626.32 478.95,-110.53 902.62,147.37 1031.58,478.95 36.83,128.94 18.42,202.63 -73.69,221.05zm-12949.99 -36.85c-36.85,18.43 -110.53,18.43 -165.79,-36.83 -276.32,-331.58 -626.31,-423.69 -847.37,-423.69 -331.57,36.85 -423.68,202.64 -460.53,350 -55.26,313.16 294.74,515.79 681.59,700 294.73,147.37 607.89,276.31 792.1,442.1 313.16,276.32 276.31,681.58 36.84,957.89 -239.48,276.32 -571.06,405.27 -976.32,350.01 -607.89,-110.53 -755.26,-534.21 -755.26,-902.64 18.43,-128.94 257.9,-92.1 276.31,-18.42 55.27,276.32 276.32,442.11 497.37,534.22 221.05,73.68 589.48,202.62 736.85,-128.96 73.68,-239.47 -36.85,-405.26 -276.31,-552.63 -331.58,-202.62 -847.38,-349.99 -1050,-571.04 -239.49,-294.74 -257.9,-571.05 -202.64,-755.27 73.68,-331.58 368.43,-571.05 773.68,-644.73 478.96,-92.11 884.21,165.79 1013.16,478.94 55.26,147.37 18.43,202.64 -73.68,221.05zm-2836.84 -423.67c0,884.21 0,1584.2 0,2486.83 0,165.79 92.1,368.42 313.15,276.32 239.48,-110.53 350.01,-350.01 331.58,-478.95 0,-644.74 0,-1197.37 0,-1842.1l0 -313.16 0 -165.79c-18.42,-313.16 -626.31,-276.31 -644.73,36.85z"/>
   <path class="fil2" d="M8895.44 5204.58l-718.42 0 0 221.05 681.58 0c110.52,0 184.22,18.43 221.05,55.26 36.85,36.85 55.26,110.53 55.26,202.63l0 165.79c0,92.11 -18.41,165.79 -55.26,202.64 -36.83,36.83 -110.53,55.26 -221.05,55.26l-681.58 0c-110.52,0 -184.2,-18.43 -221.05,-55.26 -36.85,-36.85 -55.26,-110.53 -55.26,-202.64l0 -36.84 239.47 -55.26 0 128.95 773.68 0 0 -239.48 -699.99 0c-92.11,0 -165.79,-18.42 -202.64,-55.26 -36.84,-36.84 -55.26,-110.53 -55.26,-202.63l0 -128.95c0,-92.1 18.42,-165.79 55.26,-202.63 36.85,-36.84 110.53,-55.26 202.64,-55.26l626.31 0c110.53,0 184.21,18.42 221.05,55.26 36.85,36.84 55.27,92.1 55.27,184.21l0 18.42 -221.06 55.26 0 -110.52zm1142.11 718.41l718.42 0 0 -552.63 -718.42 0 0 552.63zm-221.05 -515.78c0,-73.68 18.42,-128.94 55.26,-165.79 36.84,-18.42 92.1,-36.84 184.21,-36.84l700 0c92.1,0 147.36,18.42 184.21,36.84 36.84,36.85 36.84,92.11 36.84,165.79l0 478.95c0,92.1 0,147.36 -36.84,165.79 -36.85,36.83 -92.11,55.26 -184.21,55.26l-700 0c-92.11,0 -147.37,-18.43 -184.21,-55.26 -36.84,-18.43 -55.26,-73.69 -55.26,-165.79l0 -478.95zm2026.31 -202.63l0 736.84 626.32 0 0 -736.84 221.05 0 0 681.58c0,92.1 -18.43,147.36 -55.26,165.79 -18.43,36.83 -92.11,55.26 -184.22,55.26l-589.47 0c-92.1,0 -147.37,-18.43 -184.21,-55.26 -36.84,-18.43 -55.27,-73.69 -55.27,-165.79l0 -681.58 221.06 0zm2044.73 165.78l0 736.85 -221.05 0 0 -736.85 -423.68 0 0 -165.78 1086.84 0 0 165.78 -442.11 0zm976.32 736.85l0 -902.63 221.05 0 0 331.57 681.58 0 0 -331.57 221.05 0 0 902.63 -221.05 0 0 -386.84 -681.58 0 0 386.84 -221.05 0zm3131.58 -442.1l478.94 0 -239.47 -442.11 -239.47 442.11zm-497.37 442.1l626.32 -1105.26 239.47 0 626.32 1105.26 -276.32 0 -147.37 -239.48 -681.57 0 -128.96 239.48 -257.89 0zm2026.31 0l0 -902.63 184.22 0 442.1 534.21 423.68 -534.21 184.22 0 0 902.63 -202.64 0 0 -626.32 -405.26 515.8 -36.84 0 -405.26 -497.37 0 607.89 -184.22 0zm1897.38 0l0 -902.63 957.89 0 0 165.78 -736.84 0 0 184.22 423.68 0 0 165.79 -423.68 0 0 221.05 755.25 0 0 165.79 -976.3 0zm2265.78 -755.26l-497.36 0 0 257.89 497.36 0c36.84,0 73.68,0 73.68,-18.42 18.42,-18.42 36.85,-36.84 36.85,-55.27l0 -110.52c0,-18.42 -18.43,-36.84 -36.85,-55.27 0,0 -36.84,-18.41 -73.68,-18.41zm-718.42 755.26l0 -902.63 810.52 0c73.69,0 128.96,18.42 165.79,36.84 36.85,36.85 55.26,73.68 55.26,128.94l0 221.06c0,55.26 -18.41,110.52 -55.26,128.95 -36.83,18.42 -92.1,36.84 -165.79,36.84l-110.52 0 423.68 350 -313.16 0 -386.84 -350 -202.62 0 0 350 -221.06 0zm1657.9 0l0 -902.63 202.62 0 0 902.63 -202.62 0zm1657.89 -736.85l-589.48 0 0 552.63 589.48 0 0 -184.2 221.05 36.84 0 110.53c0,92.1 -18.42,147.36 -36.84,165.79 -36.85,36.83 -110.53,55.26 -202.64,55.26l-552.63 0c-92.1,0 -147.36,-18.43 -184.21,-55.26 -36.84,-18.43 -55.26,-73.69 -55.26,-165.79l0 -478.95c0,-73.68 18.42,-128.94 55.26,-165.79 36.85,-18.42 92.11,-36.84 184.21,-36.84l552.63 0c92.11,0 165.79,18.42 202.64,36.84 18.42,36.85 36.84,92.11 36.84,165.79l0 92.11 -221.05 36.83 0 -165.79zm681.58 736.85l515.78 -902.63 221.05 0 534.22 902.63 -239.47 0 -110.53 -202.63 -589.48 0 -128.94 202.63 -202.63 0zm423.68 -368.42l405.26 0 -202.63 -368.43 -202.63 368.43z"/>
  </g>
 </g>
</svg>
